# xmcd
#
# Track frame offsets: 
#        150
#        16983
#        28934
#        50624
#        79728
#        96395
#        109237
#        121666
#        146791
#        165959
#
# Disc length: 2798 seconds
#
# Revision: 0
# Processed by: cddbd v1.5.2PL0 Copyright (c) Steve Scherf et al.
# Submitted via: ExactAudioCopyFreeDBPlugin 1.0
#
DISCID=7f0aec0a
DTITLE=Wartime Blues - April, Texas
DYEAR=1900
DGENRE=Blues
TTITLE0=The Island
TTITLE1=Your Girl in Black Top
TTITLE2=Amarillo #2
TTITLE3=Fredericksburg
TTITLE4=Build A Sun
TTITLE5=West Texas River
TTITLE6=Poor Sights
TTITLE7=Nebraska
TTITLE8=Drying Out
TTITLE9=West Texas River (Reprise)
EXTD=
EXTT0=
EXTT1=
EXTT2=
EXTT3=
EXTT4=
EXTT5=
EXTT6=
EXTT7=
EXTT8=
EXTT9=
PLAYORDER=
